<mxfile host="app.diagrams.net" modified="2021-09-04T12:15:58.547Z" agent="5.0 (Windows NT 10.0; Win64; x64) AppleWebKit/537.36 (KHTML, like Gecko) Chrome/92.0.4515.159 Safari/537.36" etag="jRuZwcTZKzHhb0hTnKQ4" version="15.0.6" type="github">
  <diagram id="S8AlOiojRNY4c0uM1orp" name="Page-1">
    <mxGraphModel dx="785" dy="485" grid="0" gridSize="10" guides="1" tooltips="1" connect="1" arrows="1" fold="1" page="1" pageScale="1" pageWidth="827" pageHeight="1169" background="#ffffff" math="0" shadow="0">
      <root>
        <mxCell id="0" />
        <mxCell id="1" parent="0" />
        <mxCell id="9eYaoPTUDX6HVux03ysD-3" value="t_question generation" style="swimlane;strokeColor=#666666;fontColor=#333333;rounded=1;fillColor=#CCCCCC;" parent="1" vertex="1">
          <mxGeometry x="20" y="40" width="190" height="330" as="geometry">
            <mxRectangle x="20" y="40" width="160" height="23" as="alternateBounds" />
          </mxGeometry>
        </mxCell>
        <mxCell id="9eYaoPTUDX6HVux03ysD-5" value="Document" style="rounded=1;whiteSpace=wrap;html=1;fillColor=#ffe6cc;strokeColor=#d79b00;" parent="9eYaoPTUDX6HVux03ysD-3" vertex="1">
          <mxGeometry x="120" y="300" width="60" height="20" as="geometry" />
        </mxCell>
        <mxCell id="9eYaoPTUDX6HVux03ysD-8" value="&lt;font style=&quot;font-size: 10px&quot;&gt;Answer&lt;/font&gt;" style="rounded=1;whiteSpace=wrap;html=1;fillColor=#dae8fc;strokeColor=#6c8ebf;" parent="9eYaoPTUDX6HVux03ysD-3" vertex="1">
          <mxGeometry x="60" y="300" width="50" height="20" as="geometry" />
        </mxCell>
        <mxCell id="9eYaoPTUDX6HVux03ysD-38" style="edgeStyle=orthogonalEdgeStyle;rounded=0;orthogonalLoop=1;jettySize=auto;html=1;exitX=0.5;exitY=0;exitDx=0;exitDy=0;entryX=0.5;entryY=1;entryDx=0;entryDy=0;" parent="9eYaoPTUDX6HVux03ysD-3" source="9eYaoPTUDX6HVux03ysD-9" target="9eYaoPTUDX6HVux03ysD-15" edge="1">
          <mxGeometry relative="1" as="geometry" />
        </mxCell>
        <mxCell id="9eYaoPTUDX6HVux03ysD-9" value="bert classifier" style="rounded=1;whiteSpace=wrap;html=1;strokeColor=#666666;fontColor=#333333;fillColor=#E6E6E6;" parent="9eYaoPTUDX6HVux03ysD-3" vertex="1">
          <mxGeometry x="60" y="230" width="120" height="50" as="geometry" />
        </mxCell>
        <mxCell id="9eYaoPTUDX6HVux03ysD-10" value="&lt;font style=&quot;font-size: 6px&quot;&gt;q_word&lt;br style=&quot;font-size: 6px&quot;&gt;list&lt;/font&gt;" style="rounded=1;whiteSpace=wrap;html=1;fillColor=#d5e8d4;strokeColor=#82b366;" parent="9eYaoPTUDX6HVux03ysD-3" vertex="1">
          <mxGeometry x="10" y="250" width="40" height="70" as="geometry" />
        </mxCell>
        <mxCell id="9eYaoPTUDX6HVux03ysD-12" value="" style="endArrow=classic;html=1;exitX=0.5;exitY=0;exitDx=0;exitDy=0;entryX=0.75;entryY=1;entryDx=0;entryDy=0;" parent="9eYaoPTUDX6HVux03ysD-3" source="9eYaoPTUDX6HVux03ysD-5" target="9eYaoPTUDX6HVux03ysD-9" edge="1">
          <mxGeometry width="50" height="50" relative="1" as="geometry">
            <mxPoint x="170" y="270" as="sourcePoint" />
            <mxPoint x="220" y="220" as="targetPoint" />
          </mxGeometry>
        </mxCell>
        <mxCell id="9eYaoPTUDX6HVux03ysD-20" style="edgeStyle=orthogonalEdgeStyle;rounded=0;orthogonalLoop=1;jettySize=auto;html=1;exitX=0.5;exitY=0;exitDx=0;exitDy=0;entryX=0.695;entryY=1.084;entryDx=0;entryDy=0;entryPerimeter=0;" parent="9eYaoPTUDX6HVux03ysD-3" source="9eYaoPTUDX6HVux03ysD-15" target="9eYaoPTUDX6HVux03ysD-17" edge="1">
          <mxGeometry relative="1" as="geometry" />
        </mxCell>
        <mxCell id="9eYaoPTUDX6HVux03ysD-15" value="q_word" style="whiteSpace=wrap;html=1;rounded=0;strokeColor=#82b366;fillColor=#d5e8d4;" parent="9eYaoPTUDX6HVux03ysD-3" vertex="1">
          <mxGeometry x="90" y="180" width="60" height="20" as="geometry" />
        </mxCell>
        <mxCell id="9eYaoPTUDX6HVux03ysD-22" value="" style="edgeStyle=orthogonalEdgeStyle;rounded=0;orthogonalLoop=1;jettySize=auto;html=1;" parent="9eYaoPTUDX6HVux03ysD-3" source="9eYaoPTUDX6HVux03ysD-17" target="9eYaoPTUDX6HVux03ysD-21" edge="1">
          <mxGeometry relative="1" as="geometry" />
        </mxCell>
        <mxCell id="9eYaoPTUDX6HVux03ysD-17" value="Encoder" style="rounded=1;whiteSpace=wrap;html=1;strokeColor=#666666;fontColor=#333333;fillColor=#E6E6E6;" parent="9eYaoPTUDX6HVux03ysD-3" vertex="1">
          <mxGeometry x="10" y="120" width="160" height="30" as="geometry" />
        </mxCell>
        <mxCell id="9eYaoPTUDX6HVux03ysD-18" style="edgeStyle=orthogonalEdgeStyle;rounded=0;orthogonalLoop=1;jettySize=auto;html=1;entryX=0.122;entryY=1.052;entryDx=0;entryDy=0;entryPerimeter=0;" parent="9eYaoPTUDX6HVux03ysD-3" source="9eYaoPTUDX6HVux03ysD-10" target="9eYaoPTUDX6HVux03ysD-17" edge="1">
          <mxGeometry relative="1" as="geometry">
            <mxPoint x="30" y="230" as="targetPoint" />
          </mxGeometry>
        </mxCell>
        <mxCell id="9eYaoPTUDX6HVux03ysD-21" value="q_word" style="whiteSpace=wrap;html=1;rounded=0;fillColor=#d5e8d4;strokeColor=#82b366;" parent="9eYaoPTUDX6HVux03ysD-3" vertex="1">
          <mxGeometry x="30" y="50" width="120" height="30" as="geometry" />
        </mxCell>
        <mxCell id="9eYaoPTUDX6HVux03ysD-24" value="cos_sim" style="text;html=1;strokeColor=none;align=center;verticalAlign=middle;whiteSpace=wrap;rounded=0;fillColor=#ffffff;" parent="9eYaoPTUDX6HVux03ysD-3" vertex="1">
          <mxGeometry x="70" y="90" width="40" height="20" as="geometry" />
        </mxCell>
        <mxCell id="9eYaoPTUDX6HVux03ysD-4" value="question correction" style="swimlane;rounded=1;strokeColor=#666666;fontColor=#333333;fillColor=#CCCCCC;" parent="1" vertex="1">
          <mxGeometry x="310" y="40" width="360" height="330" as="geometry" />
        </mxCell>
        <mxCell id="9eYaoPTUDX6HVux03ysD-35" value="Encoder" style="rounded=1;whiteSpace=wrap;html=1;strokeColor=#666666;fontColor=#333333;fillColor=#E6E6E6;" parent="9eYaoPTUDX6HVux03ysD-4" vertex="1">
          <mxGeometry x="25" y="265" width="290" height="35" as="geometry" />
        </mxCell>
        <mxCell id="9eYaoPTUDX6HVux03ysD-43" value="t_question" style="rounded=1;whiteSpace=wrap;html=1;fillColor=#f8cecc;strokeColor=#b85450;" parent="9eYaoPTUDX6HVux03ysD-4" vertex="1">
          <mxGeometry x="60" y="230" width="80" height="20" as="geometry" />
        </mxCell>
        <mxCell id="9eYaoPTUDX6HVux03ysD-61" style="edgeStyle=orthogonalEdgeStyle;rounded=0;orthogonalLoop=1;jettySize=auto;html=1;exitX=0.5;exitY=0;exitDx=0;exitDy=0;entryX=0.606;entryY=1;entryDx=0;entryDy=0;entryPerimeter=0;strokeColor=#FFB570;" parent="9eYaoPTUDX6HVux03ysD-4" source="9eYaoPTUDX6HVux03ysD-44" target="9eYaoPTUDX6HVux03ysD-59" edge="1">
          <mxGeometry relative="1" as="geometry" />
        </mxCell>
        <mxCell id="9eYaoPTUDX6HVux03ysD-44" value="document" style="rounded=1;whiteSpace=wrap;html=1;fillColor=#ffe6cc;strokeColor=#d79b00;" parent="9eYaoPTUDX6HVux03ysD-4" vertex="1">
          <mxGeometry x="215" y="240" width="100" height="20" as="geometry" />
        </mxCell>
        <mxCell id="9eYaoPTUDX6HVux03ysD-46" value="exampler" style="rounded=1;whiteSpace=wrap;html=1;fillColor=#e1d5e7;strokeColor=#9673a6;" parent="9eYaoPTUDX6HVux03ysD-4" vertex="1">
          <mxGeometry x="142.5" y="230" width="55" height="20" as="geometry" />
        </mxCell>
        <mxCell id="9eYaoPTUDX6HVux03ysD-47" value="" style="rounded=1;whiteSpace=wrap;html=1;fillColor=none;dashed=1;" parent="9eYaoPTUDX6HVux03ysD-4" vertex="1">
          <mxGeometry x="10" y="220" width="200" height="40" as="geometry" />
        </mxCell>
        <mxCell id="9eYaoPTUDX6HVux03ysD-45" value="type" style="rounded=1;whiteSpace=wrap;html=1;strokeColor=#82b366;fillColor=#d5e8d4;" parent="9eYaoPTUDX6HVux03ysD-4" vertex="1">
          <mxGeometry x="20" y="230" width="40" height="20" as="geometry" />
        </mxCell>
        <mxCell id="9eYaoPTUDX6HVux03ysD-49" value="" style="rounded=1;whiteSpace=wrap;html=1;strokeColor=#666666;fontColor=#333333;fillColor=#EBEBEB;" parent="9eYaoPTUDX6HVux03ysD-4" vertex="1">
          <mxGeometry x="20" y="60" width="90" height="150" as="geometry" />
        </mxCell>
        <mxCell id="9eYaoPTUDX6HVux03ysD-50" value="Self Attn" style="rounded=1;whiteSpace=wrap;html=1;fillColor=#CFCFCF;" parent="9eYaoPTUDX6HVux03ysD-4" vertex="1">
          <mxGeometry x="30" y="160" width="70" height="30" as="geometry" />
        </mxCell>
        <mxCell id="9eYaoPTUDX6HVux03ysD-158" style="edgeStyle=orthogonalEdgeStyle;rounded=0;orthogonalLoop=1;jettySize=auto;html=1;exitX=0.5;exitY=0;exitDx=0;exitDy=0;entryX=0.5;entryY=1;entryDx=0;entryDy=0;strokeColor=#000000;" parent="9eYaoPTUDX6HVux03ysD-4" source="9eYaoPTUDX6HVux03ysD-52" target="9eYaoPTUDX6HVux03ysD-51" edge="1">
          <mxGeometry relative="1" as="geometry" />
        </mxCell>
        <mxCell id="9eYaoPTUDX6HVux03ysD-52" value="Cross Attn" style="rounded=1;whiteSpace=wrap;html=1;fillColor=#CFCFCF;" parent="9eYaoPTUDX6HVux03ysD-4" vertex="1">
          <mxGeometry x="30" y="115" width="70" height="30" as="geometry" />
        </mxCell>
        <mxCell id="9eYaoPTUDX6HVux03ysD-51" value="Cross Attn" style="rounded=1;whiteSpace=wrap;html=1;fillColor=#CFCFCF;" parent="9eYaoPTUDX6HVux03ysD-4" vertex="1">
          <mxGeometry x="30" y="70" width="70" height="30" as="geometry" />
        </mxCell>
        <mxCell id="9eYaoPTUDX6HVux03ysD-57" value="H" style="rounded=1;whiteSpace=wrap;html=1;strokeColor=none;fillColor=none;" parent="9eYaoPTUDX6HVux03ysD-4" vertex="1">
          <mxGeometry x="-5" y="160" width="30" height="20" as="geometry" />
        </mxCell>
        <mxCell id="9eYaoPTUDX6HVux03ysD-58" value="" style="curved=1;endArrow=none;html=1;exitX=0.138;exitY=0.01;exitDx=0;exitDy=0;exitPerimeter=0;" parent="9eYaoPTUDX6HVux03ysD-4" source="9eYaoPTUDX6HVux03ysD-47" target="9eYaoPTUDX6HVux03ysD-57" edge="1">
          <mxGeometry width="50" height="50" relative="1" as="geometry">
            <mxPoint x="110" y="220" as="sourcePoint" />
            <mxPoint x="70" y="130" as="targetPoint" />
            <Array as="points">
              <mxPoint x="10" y="210" />
            </Array>
          </mxGeometry>
        </mxCell>
        <mxCell id="9eYaoPTUDX6HVux03ysD-59" value="" style="rounded=1;whiteSpace=wrap;html=1;fillColor=none;strokeColor=#FF8000;" parent="9eYaoPTUDX6HVux03ysD-4" vertex="1">
          <mxGeometry x="180" y="70" width="170" height="140" as="geometry" />
        </mxCell>
        <mxCell id="9eYaoPTUDX6HVux03ysD-110" style="edgeStyle=orthogonalEdgeStyle;curved=1;orthogonalLoop=1;jettySize=auto;html=1;exitX=0;exitY=1;exitDx=0;exitDy=0;entryX=0.397;entryY=0.01;entryDx=0;entryDy=0;entryPerimeter=0;" parent="9eYaoPTUDX6HVux03ysD-4" source="9eYaoPTUDX6HVux03ysD-63" target="9eYaoPTUDX6HVux03ysD-96" edge="1">
          <mxGeometry relative="1" as="geometry" />
        </mxCell>
        <mxCell id="9eYaoPTUDX6HVux03ysD-63" value="" style="ellipse;whiteSpace=wrap;html=1;rounded=1;fillColor=#FFB366;" parent="9eYaoPTUDX6HVux03ysD-4" vertex="1">
          <mxGeometry x="215" y="80" width="42.5" height="20" as="geometry" />
        </mxCell>
        <mxCell id="9eYaoPTUDX6HVux03ysD-98" value="" style="ellipse;whiteSpace=wrap;html=1;rounded=1;fillColor=#FFCC99;" parent="9eYaoPTUDX6HVux03ysD-4" vertex="1">
          <mxGeometry x="187.5" y="160" width="42.5" height="20" as="geometry" />
        </mxCell>
        <mxCell id="9eYaoPTUDX6HVux03ysD-113" style="edgeStyle=orthogonalEdgeStyle;curved=1;orthogonalLoop=1;jettySize=auto;html=1;exitX=0.5;exitY=1;exitDx=0;exitDy=0;entryX=0;entryY=0;entryDx=0;entryDy=0;" parent="9eYaoPTUDX6HVux03ysD-4" source="9eYaoPTUDX6HVux03ysD-99" target="9eYaoPTUDX6HVux03ysD-100" edge="1">
          <mxGeometry relative="1" as="geometry" />
        </mxCell>
        <mxCell id="9eYaoPTUDX6HVux03ysD-116" style="edgeStyle=orthogonalEdgeStyle;curved=1;orthogonalLoop=1;jettySize=auto;html=1;exitX=1;exitY=0;exitDx=0;exitDy=0;entryX=0;entryY=0.5;entryDx=0;entryDy=0;" parent="9eYaoPTUDX6HVux03ysD-4" source="9eYaoPTUDX6HVux03ysD-99" target="9eYaoPTUDX6HVux03ysD-111" edge="1">
          <mxGeometry relative="1" as="geometry" />
        </mxCell>
        <mxCell id="9eYaoPTUDX6HVux03ysD-99" value="" style="ellipse;whiteSpace=wrap;html=1;rounded=1;fillColor=#FFCC99;" parent="9eYaoPTUDX6HVux03ysD-4" vertex="1">
          <mxGeometry x="230" y="140" width="42.5" height="20" as="geometry" />
        </mxCell>
        <mxCell id="9eYaoPTUDX6HVux03ysD-112" style="edgeStyle=orthogonalEdgeStyle;curved=1;orthogonalLoop=1;jettySize=auto;html=1;exitX=1;exitY=0.5;exitDx=0;exitDy=0;entryX=0.559;entryY=0.75;entryDx=0;entryDy=0;entryPerimeter=0;" parent="9eYaoPTUDX6HVux03ysD-4" source="9eYaoPTUDX6HVux03ysD-100" target="9eYaoPTUDX6HVux03ysD-111" edge="1">
          <mxGeometry relative="1" as="geometry" />
        </mxCell>
        <mxCell id="9eYaoPTUDX6HVux03ysD-100" value="" style="ellipse;whiteSpace=wrap;html=1;rounded=1;fillColor=#ffe6cc;" parent="9eYaoPTUDX6HVux03ysD-4" vertex="1">
          <mxGeometry x="243.75" y="170" width="42.5" height="20" as="geometry" />
        </mxCell>
        <mxCell id="9eYaoPTUDX6HVux03ysD-107" style="edgeStyle=orthogonalEdgeStyle;curved=1;orthogonalLoop=1;jettySize=auto;html=1;exitX=0.5;exitY=1;exitDx=0;exitDy=0;entryX=0;entryY=0;entryDx=0;entryDy=0;" parent="9eYaoPTUDX6HVux03ysD-4" source="9eYaoPTUDX6HVux03ysD-96" target="9eYaoPTUDX6HVux03ysD-98" edge="1">
          <mxGeometry relative="1" as="geometry" />
        </mxCell>
        <mxCell id="9eYaoPTUDX6HVux03ysD-108" style="edgeStyle=orthogonalEdgeStyle;curved=1;orthogonalLoop=1;jettySize=auto;html=1;exitX=1;exitY=0.5;exitDx=0;exitDy=0;entryX=0.5;entryY=0;entryDx=0;entryDy=0;" parent="9eYaoPTUDX6HVux03ysD-4" source="9eYaoPTUDX6HVux03ysD-96" target="9eYaoPTUDX6HVux03ysD-99" edge="1">
          <mxGeometry relative="1" as="geometry" />
        </mxCell>
        <mxCell id="9eYaoPTUDX6HVux03ysD-96" value="" style="ellipse;whiteSpace=wrap;html=1;rounded=1;fillColor=#ffe6cc;" parent="9eYaoPTUDX6HVux03ysD-4" vertex="1">
          <mxGeometry x="186.25" y="115" width="42.5" height="20" as="geometry" />
        </mxCell>
        <mxCell id="9eYaoPTUDX6HVux03ysD-102" value="semantic graph" style="text;html=1;strokeColor=none;fillColor=none;align=center;verticalAlign=middle;whiteSpace=wrap;rounded=0;" parent="9eYaoPTUDX6HVux03ysD-4" vertex="1">
          <mxGeometry x="190" y="190" width="120" height="20" as="geometry" />
        </mxCell>
        <mxCell id="9eYaoPTUDX6HVux03ysD-111" value="" style="ellipse;whiteSpace=wrap;html=1;rounded=1;fillColor=#FF9933;" parent="9eYaoPTUDX6HVux03ysD-4" vertex="1">
          <mxGeometry x="286.25" y="150" width="42.5" height="20" as="geometry" />
        </mxCell>
        <mxCell id="9eYaoPTUDX6HVux03ysD-120" value="v_i(L)" style="rounded=1;whiteSpace=wrap;html=1;strokeColor=none;" parent="9eYaoPTUDX6HVux03ysD-4" vertex="1">
          <mxGeometry x="130" y="135" width="36.25" height="25" as="geometry" />
        </mxCell>
        <mxCell id="9eYaoPTUDX6HVux03ysD-123" style="edgeStyle=orthogonalEdgeStyle;rounded=0;orthogonalLoop=1;jettySize=auto;html=1;entryX=1;entryY=0.5;entryDx=0;entryDy=0;strokeColor=#000000;" parent="9eYaoPTUDX6HVux03ysD-4" source="9eYaoPTUDX6HVux03ysD-122" target="9eYaoPTUDX6HVux03ysD-51" edge="1">
          <mxGeometry relative="1" as="geometry">
            <Array as="points">
              <mxPoint x="148" y="85" />
            </Array>
          </mxGeometry>
        </mxCell>
        <mxCell id="9eYaoPTUDX6HVux03ysD-122" value="" style="verticalLabelPosition=bottom;verticalAlign=top;html=1;shape=mxgraph.flowchart.or;rounded=1;" parent="9eYaoPTUDX6HVux03ysD-4" vertex="1">
          <mxGeometry x="142.5" y="110" width="11.88" height="10" as="geometry" />
        </mxCell>
        <mxCell id="9eYaoPTUDX6HVux03ysD-127" style="edgeStyle=orthogonalEdgeStyle;orthogonalLoop=1;jettySize=auto;html=1;exitX=0;exitY=0.5;exitDx=0;exitDy=0;entryX=1;entryY=0.5;entryDx=0;entryDy=0;entryPerimeter=0;strokeColor=#000000;curved=1;" parent="9eYaoPTUDX6HVux03ysD-4" source="9eYaoPTUDX6HVux03ysD-125" target="9eYaoPTUDX6HVux03ysD-122" edge="1">
          <mxGeometry relative="1" as="geometry">
            <Array as="points">
              <mxPoint x="170" y="50" />
              <mxPoint x="170" y="115" />
            </Array>
          </mxGeometry>
        </mxCell>
        <mxCell id="9eYaoPTUDX6HVux03ysD-125" value="focus prediction" style="rounded=1;whiteSpace=wrap;html=1;strokeColor=none;" parent="9eYaoPTUDX6HVux03ysD-4" vertex="1">
          <mxGeometry x="197.5" y="40" width="52.5" height="20" as="geometry" />
        </mxCell>
        <mxCell id="9eYaoPTUDX6HVux03ysD-128" value="g_i" style="rounded=1;whiteSpace=wrap;html=1;strokeColor=none;" parent="9eYaoPTUDX6HVux03ysD-4" vertex="1">
          <mxGeometry x="159.25" y="60" width="20.75" height="20" as="geometry" />
        </mxCell>
        <mxCell id="9eYaoPTUDX6HVux03ysD-140" style="edgeStyle=orthogonalEdgeStyle;curved=1;orthogonalLoop=1;jettySize=auto;html=1;exitX=0.75;exitY=0;exitDx=0;exitDy=0;entryX=1;entryY=0.5;entryDx=0;entryDy=0;strokeColor=#FF8000;" parent="9eYaoPTUDX6HVux03ysD-4" source="9eYaoPTUDX6HVux03ysD-59" target="9eYaoPTUDX6HVux03ysD-125" edge="1">
          <mxGeometry relative="1" as="geometry">
            <mxPoint x="270" y="49.99999999999994" as="targetPoint" />
            <Array as="points">
              <mxPoint x="308" y="50" />
            </Array>
          </mxGeometry>
        </mxCell>
        <mxCell id="9eYaoPTUDX6HVux03ysD-138" value="v_i(L)" style="rounded=1;whiteSpace=wrap;html=1;strokeColor=none;" parent="9eYaoPTUDX6HVux03ysD-4" vertex="1">
          <mxGeometry x="273.75" y="40" width="26.25" height="20" as="geometry" />
        </mxCell>
        <mxCell id="9eYaoPTUDX6HVux03ysD-144" value="V(L)&#39;" style="rounded=0;whiteSpace=wrap;html=1;fillColor=#ffffff;strokeColor=none;" parent="9eYaoPTUDX6HVux03ysD-4" vertex="1">
          <mxGeometry x="117.5" y="75" width="22.5" height="20" as="geometry" />
        </mxCell>
        <mxCell id="9eYaoPTUDX6HVux03ysD-146" value="确定" style="ellipse;whiteSpace=wrap;html=1;rounded=1;fillColor=#FFB366;" parent="9eYaoPTUDX6HVux03ysD-4" vertex="1">
          <mxGeometry x="215" y="80" width="42.5" height="20" as="geometry" />
        </mxCell>
        <mxCell id="9eYaoPTUDX6HVux03ysD-147" value="" style="ellipse;whiteSpace=wrap;html=1;rounded=1;fillColor=#ffe6cc;" parent="9eYaoPTUDX6HVux03ysD-4" vertex="1">
          <mxGeometry x="186.25" y="115" width="42.5" height="20" as="geometry" />
        </mxCell>
        <mxCell id="9eYaoPTUDX6HVux03ysD-148" value="" style="ellipse;whiteSpace=wrap;html=1;rounded=1;fillColor=#FFCC99;" parent="9eYaoPTUDX6HVux03ysD-4" vertex="1">
          <mxGeometry x="187.5" y="160" width="42.5" height="20" as="geometry" />
        </mxCell>
        <mxCell id="9eYaoPTUDX6HVux03ysD-149" value="" style="ellipse;whiteSpace=wrap;html=1;rounded=1;fillColor=#FFCC99;" parent="9eYaoPTUDX6HVux03ysD-4" vertex="1">
          <mxGeometry x="230" y="140" width="42.5" height="20" as="geometry" />
        </mxCell>
        <mxCell id="9eYaoPTUDX6HVux03ysD-150" value="" style="ellipse;whiteSpace=wrap;html=1;rounded=1;fillColor=#ffe6cc;" parent="9eYaoPTUDX6HVux03ysD-4" vertex="1">
          <mxGeometry x="243.75" y="170" width="42.5" height="20" as="geometry" />
        </mxCell>
        <mxCell id="9eYaoPTUDX6HVux03ysD-153" value="" style="ellipse;whiteSpace=wrap;html=1;rounded=1;fillColor=#ffe6cc;" parent="9eYaoPTUDX6HVux03ysD-4" vertex="1">
          <mxGeometry x="272.5" y="110" width="42.5" height="20" as="geometry" />
        </mxCell>
        <mxCell id="9eYaoPTUDX6HVux03ysD-154" style="edgeStyle=orthogonalEdgeStyle;curved=1;orthogonalLoop=1;jettySize=auto;html=1;exitX=1;exitY=0.5;exitDx=0;exitDy=0;entryX=0.5;entryY=0;entryDx=0;entryDy=0;" parent="9eYaoPTUDX6HVux03ysD-4" source="9eYaoPTUDX6HVux03ysD-146" target="9eYaoPTUDX6HVux03ysD-153" edge="1">
          <mxGeometry relative="1" as="geometry" />
        </mxCell>
        <mxCell id="9eYaoPTUDX6HVux03ysD-157" value="" style="endArrow=classic;html=1;strokeColor=#000000;exitX=0.5;exitY=0;exitDx=0;exitDy=0;entryX=0.5;entryY=1;entryDx=0;entryDy=0;" parent="9eYaoPTUDX6HVux03ysD-4" source="9eYaoPTUDX6HVux03ysD-50" target="9eYaoPTUDX6HVux03ysD-52" edge="1">
          <mxGeometry width="50" height="50" relative="1" as="geometry">
            <mxPoint x="50" y="200" as="sourcePoint" />
            <mxPoint x="100" y="150" as="targetPoint" />
          </mxGeometry>
        </mxCell>
        <mxCell id="9eYaoPTUDX6HVux03ysD-159" value="Decoder layer" style="text;html=1;strokeColor=none;fillColor=none;align=center;verticalAlign=middle;whiteSpace=wrap;rounded=0;" parent="9eYaoPTUDX6HVux03ysD-4" vertex="1">
          <mxGeometry x="15" y="190" width="100" height="20" as="geometry" />
        </mxCell>
        <mxCell id="9eYaoPTUDX6HVux03ysD-11" value="" style="endArrow=classic;html=1;exitX=0.5;exitY=0;exitDx=0;exitDy=0;" parent="1" source="9eYaoPTUDX6HVux03ysD-8" edge="1">
          <mxGeometry width="50" height="50" relative="1" as="geometry">
            <mxPoint x="190" y="310" as="sourcePoint" />
            <mxPoint x="105" y="320" as="targetPoint" />
          </mxGeometry>
        </mxCell>
        <mxCell id="9eYaoPTUDX6HVux03ysD-39" style="edgeStyle=orthogonalEdgeStyle;rounded=0;orthogonalLoop=1;jettySize=auto;html=1;exitX=1;exitY=0.5;exitDx=0;exitDy=0;entryX=0.224;entryY=1.014;entryDx=0;entryDy=0;entryPerimeter=0;" parent="1" source="9eYaoPTUDX6HVux03ysD-25" target="9eYaoPTUDX6HVux03ysD-35" edge="1">
          <mxGeometry relative="1" as="geometry" />
        </mxCell>
        <mxCell id="9eYaoPTUDX6HVux03ysD-25" value="t_question" style="rounded=1;whiteSpace=wrap;html=1;fillColor=#f8cecc;strokeColor=#b85450;" parent="1" vertex="1">
          <mxGeometry x="220" y="350" width="70" height="20" as="geometry" />
        </mxCell>
        <mxCell id="9eYaoPTUDX6HVux03ysD-27" style="edgeStyle=orthogonalEdgeStyle;rounded=0;orthogonalLoop=1;jettySize=auto;html=1;entryX=0.5;entryY=1;entryDx=0;entryDy=0;entryPerimeter=0;exitX=0.5;exitY=1;exitDx=0;exitDy=0;" parent="1" source="9eYaoPTUDX6HVux03ysD-5" target="9eYaoPTUDX6HVux03ysD-25" edge="1">
          <mxGeometry relative="1" as="geometry">
            <mxPoint x="170" y="410" as="sourcePoint" />
          </mxGeometry>
        </mxCell>
        <mxCell id="9eYaoPTUDX6HVux03ysD-30" style="edgeStyle=orthogonalEdgeStyle;rounded=0;orthogonalLoop=1;jettySize=auto;html=1;exitX=0.5;exitY=1;exitDx=0;exitDy=0;entryX=0.5;entryY=1;entryDx=0;entryDy=0;" parent="1" source="9eYaoPTUDX6HVux03ysD-8" target="9eYaoPTUDX6HVux03ysD-25" edge="1">
          <mxGeometry relative="1" as="geometry" />
        </mxCell>
        <mxCell id="9eYaoPTUDX6HVux03ysD-31" style="edgeStyle=orthogonalEdgeStyle;rounded=0;orthogonalLoop=1;jettySize=auto;html=1;exitX=1;exitY=0.5;exitDx=0;exitDy=0;entryX=0.5;entryY=0;entryDx=0;entryDy=0;" parent="1" source="9eYaoPTUDX6HVux03ysD-21" target="9eYaoPTUDX6HVux03ysD-25" edge="1">
          <mxGeometry relative="1" as="geometry" />
        </mxCell>
        <mxCell id="9eYaoPTUDX6HVux03ysD-42" style="edgeStyle=orthogonalEdgeStyle;rounded=0;orthogonalLoop=1;jettySize=auto;html=1;exitX=0.75;exitY=1;exitDx=0;exitDy=0;entryX=0.75;entryY=1;entryDx=0;entryDy=0;" parent="1" source="9eYaoPTUDX6HVux03ysD-5" target="9eYaoPTUDX6HVux03ysD-35" edge="1">
          <mxGeometry relative="1" as="geometry">
            <Array as="points">
              <mxPoint x="185" y="400" />
              <mxPoint x="553" y="400" />
            </Array>
          </mxGeometry>
        </mxCell>
        <mxCell id="9eYaoPTUDX6HVux03ysD-55" value="" style="curved=1;endArrow=classic;html=1;exitX=0.5;exitY=0;exitDx=0;exitDy=0;startArrow=none;" parent="1" source="9eYaoPTUDX6HVux03ysD-57" edge="1">
          <mxGeometry width="50" height="50" relative="1" as="geometry">
            <mxPoint x="330" y="220" as="sourcePoint" />
            <mxPoint x="340" y="170" as="targetPoint" />
            <Array as="points">
              <mxPoint x="330" y="180" />
              <mxPoint x="340" y="170" />
            </Array>
          </mxGeometry>
        </mxCell>
        <mxCell id="9eYaoPTUDX6HVux03ysD-118" style="edgeStyle=orthogonalEdgeStyle;orthogonalLoop=1;jettySize=auto;html=1;exitX=0;exitY=0.75;exitDx=0;exitDy=0;strokeColor=#000000;rounded=0;" parent="1" source="9eYaoPTUDX6HVux03ysD-59" edge="1">
          <mxGeometry relative="1" as="geometry">
            <mxPoint x="460" y="200" as="targetPoint" />
            <Array as="points">
              <mxPoint x="460" y="215" />
            </Array>
          </mxGeometry>
        </mxCell>
        <mxCell id="9eYaoPTUDX6HVux03ysD-121" style="edgeStyle=orthogonalEdgeStyle;rounded=0;orthogonalLoop=1;jettySize=auto;html=1;exitX=0.5;exitY=0;exitDx=0;exitDy=0;strokeColor=#000000;" parent="1" source="9eYaoPTUDX6HVux03ysD-120" edge="1">
          <mxGeometry relative="1" as="geometry">
            <mxPoint x="458.2758620689656" y="160" as="targetPoint" />
          </mxGeometry>
        </mxCell>
        <mxCell id="9eYaoPTUDX6HVux03ysD-156" value="" style="endArrow=classic;html=1;rounded=0;" parent="1" edge="1">
          <mxGeometry width="50" height="50" relative="1" as="geometry">
            <mxPoint x="370" y="100" as="sourcePoint" />
            <mxPoint x="370" y="80" as="targetPoint" />
          </mxGeometry>
        </mxCell>
        <mxCell id="nNOYpqoYlBSuwTUVvYfQ-1" value="安源路矿工人大罢工" style="text;whiteSpace=wrap;html=1;strokeColor=#6c8ebf;fillColor=#dae8fc;align=center;" vertex="1" parent="1">
          <mxGeometry x="90" y="448" width="102" height="28" as="geometry" />
        </mxCell>
        <mxCell id="nNOYpqoYlBSuwTUVvYfQ-2" value="1922年春天，刘少奇同志根据党的指示回国，参与领导闻名全国的安源路矿工人大罢工。这是中国共产党第一次独立领导并取得完全胜利的工人斗争，提高了党组织在工人群众中的威信。" style="text;whiteSpace=wrap;html=1;fillColor=#ffe6cc;strokeColor=#d79b00;" vertex="1" parent="1">
          <mxGeometry x="89.99666666666675" y="492" width="540" height="42" as="geometry" />
        </mxCell>
        <mxCell id="nNOYpqoYlBSuwTUVvYfQ-9" style="edgeStyle=orthogonalEdgeStyle;rounded=0;orthogonalLoop=1;jettySize=auto;html=1;exitX=0;exitY=0.5;exitDx=0;exitDy=0;entryX=0.5;entryY=0;entryDx=0;entryDy=0;" edge="1" parent="1" source="nNOYpqoYlBSuwTUVvYfQ-5" target="nNOYpqoYlBSuwTUVvYfQ-6">
          <mxGeometry relative="1" as="geometry" />
        </mxCell>
        <mxCell id="nNOYpqoYlBSuwTUVvYfQ-12" style="edgeStyle=orthogonalEdgeStyle;rounded=0;orthogonalLoop=1;jettySize=auto;html=1;exitX=1;exitY=0.5;exitDx=0;exitDy=0;entryX=0.559;entryY=-0.007;entryDx=0;entryDy=0;entryPerimeter=0;" edge="1" parent="1" source="nNOYpqoYlBSuwTUVvYfQ-5" target="nNOYpqoYlBSuwTUVvYfQ-7">
          <mxGeometry relative="1" as="geometry" />
        </mxCell>
        <mxCell id="nNOYpqoYlBSuwTUVvYfQ-5" value="是" style="ellipse;whiteSpace=wrap;html=1;fillColor=none;align=center;" vertex="1" parent="1">
          <mxGeometry x="263" y="686" width="60" height="40" as="geometry" />
        </mxCell>
        <mxCell id="nNOYpqoYlBSuwTUVvYfQ-6" value="&quot;超级碗50&quot;" style="ellipse;whiteSpace=wrap;html=1;fillColor=none;align=center;" vertex="1" parent="1">
          <mxGeometry x="186" y="735" width="92" height="51" as="geometry" />
        </mxCell>
        <mxCell id="nNOYpqoYlBSuwTUVvYfQ-7" value="一项美国足球比赛" style="ellipse;whiteSpace=wrap;html=1;fillColor=none;align=center;" vertex="1" parent="1">
          <mxGeometry x="330" y="743" width="76" height="56" as="geometry" />
        </mxCell>
        <mxCell id="nNOYpqoYlBSuwTUVvYfQ-11" value="A0" style="text;html=1;strokeColor=none;fillColor=none;align=center;verticalAlign=middle;whiteSpace=wrap;rounded=0;" vertex="1" parent="1">
          <mxGeometry x="192" y="701" width="40" height="20" as="geometry" />
        </mxCell>
        <mxCell id="nNOYpqoYlBSuwTUVvYfQ-13" value="A1" style="text;html=1;strokeColor=none;fillColor=none;align=center;verticalAlign=middle;whiteSpace=wrap;rounded=0;" vertex="1" parent="1">
          <mxGeometry x="337" y="686" width="40" height="20" as="geometry" />
        </mxCell>
        <mxCell id="nNOYpqoYlBSuwTUVvYfQ-41" style="edgeStyle=orthogonalEdgeStyle;curved=1;orthogonalLoop=1;jettySize=auto;html=1;exitX=0.5;exitY=1;exitDx=0;exitDy=0;entryX=1;entryY=0.5;entryDx=0;entryDy=0;" edge="1" parent="1" source="nNOYpqoYlBSuwTUVvYfQ-14" target="nNOYpqoYlBSuwTUVvYfQ-18">
          <mxGeometry relative="1" as="geometry" />
        </mxCell>
        <mxCell id="nNOYpqoYlBSuwTUVvYfQ-14" value="确定" style="ellipse;whiteSpace=wrap;html=1;fillColor=none;align=center;" vertex="1" parent="1">
          <mxGeometry x="444" y="954" width="83" height="38" as="geometry" />
        </mxCell>
        <mxCell id="nNOYpqoYlBSuwTUVvYfQ-18" value="&lt;span style=&quot;text-align: left&quot;&gt;2015赛季美国国家足球联盟 （ NFL ） 的冠军&lt;/span&gt;" style="ellipse;whiteSpace=wrap;html=1;fillColor=none;align=center;" vertex="1" parent="1">
          <mxGeometry x="307" y="992" width="130" height="71" as="geometry" />
        </mxCell>
        <mxCell id="nNOYpqoYlBSuwTUVvYfQ-20" value="A1" style="text;html=1;strokeColor=none;fillColor=none;align=center;verticalAlign=middle;whiteSpace=wrap;rounded=0;" vertex="1" parent="1">
          <mxGeometry x="481" y="1017.5" width="40" height="20" as="geometry" />
        </mxCell>
        <mxCell id="nNOYpqoYlBSuwTUVvYfQ-25" style="edgeStyle=orthogonalEdgeStyle;orthogonalLoop=1;jettySize=auto;html=1;exitX=0;exitY=0.5;exitDx=0;exitDy=0;entryX=0.5;entryY=0;entryDx=0;entryDy=0;curved=1;" edge="1" parent="1" source="nNOYpqoYlBSuwTUVvYfQ-21" target="nNOYpqoYlBSuwTUVvYfQ-22">
          <mxGeometry relative="1" as="geometry" />
        </mxCell>
        <mxCell id="nNOYpqoYlBSuwTUVvYfQ-26" style="edgeStyle=orthogonalEdgeStyle;rounded=0;orthogonalLoop=1;jettySize=auto;html=1;exitX=0.5;exitY=1;exitDx=0;exitDy=0;entryX=0.5;entryY=0;entryDx=0;entryDy=0;" edge="1" parent="1" source="nNOYpqoYlBSuwTUVvYfQ-21" target="nNOYpqoYlBSuwTUVvYfQ-23">
          <mxGeometry relative="1" as="geometry" />
        </mxCell>
        <mxCell id="nNOYpqoYlBSuwTUVvYfQ-27" style="edgeStyle=orthogonalEdgeStyle;orthogonalLoop=1;jettySize=auto;html=1;exitX=1;exitY=0.5;exitDx=0;exitDy=0;entryX=0.5;entryY=0;entryDx=0;entryDy=0;curved=1;" edge="1" parent="1" source="nNOYpqoYlBSuwTUVvYfQ-21" target="nNOYpqoYlBSuwTUVvYfQ-24">
          <mxGeometry relative="1" as="geometry" />
        </mxCell>
        <mxCell id="nNOYpqoYlBSuwTUVvYfQ-21" value="击败" style="ellipse;whiteSpace=wrap;html=1;fillColor=none;align=center;" vertex="1" parent="1">
          <mxGeometry x="329" y="824" width="71" height="33" as="geometry" />
        </mxCell>
        <mxCell id="nNOYpqoYlBSuwTUVvYfQ-40" style="edgeStyle=orthogonalEdgeStyle;curved=1;orthogonalLoop=1;jettySize=auto;html=1;exitX=0.5;exitY=1;exitDx=0;exitDy=0;entryX=0.001;entryY=0.635;entryDx=0;entryDy=0;entryPerimeter=0;" edge="1" parent="1" source="nNOYpqoYlBSuwTUVvYfQ-22" target="nNOYpqoYlBSuwTUVvYfQ-18">
          <mxGeometry relative="1" as="geometry" />
        </mxCell>
        <mxCell id="nNOYpqoYlBSuwTUVvYfQ-22" value="&lt;span style=&quot;text-align: left&quot;&gt;美国橄榄球联盟 （ AFC ） 冠军丹佛野马队&lt;/span&gt;" style="ellipse;whiteSpace=wrap;html=1;fillColor=none;align=center;" vertex="1" parent="1">
          <mxGeometry x="200" y="889" width="101" height="56" as="geometry" />
        </mxCell>
        <mxCell id="nNOYpqoYlBSuwTUVvYfQ-23" value="&#xa;&#xa;&lt;span style=&quot;color: rgb(0, 0, 0); font-family: helvetica; font-size: 12px; font-style: normal; font-weight: 400; letter-spacing: normal; text-align: left; text-indent: 0px; text-transform: none; word-spacing: 0px; background-color: rgb(248, 249, 250); display: inline; float: none;&quot;&gt;以24比10&lt;/span&gt;&#xa;&#xa;" style="ellipse;whiteSpace=wrap;html=1;fillColor=none;align=center;" vertex="1" parent="1">
          <mxGeometry x="315" y="913" width="99" height="57" as="geometry" />
        </mxCell>
        <mxCell id="nNOYpqoYlBSuwTUVvYfQ-24" value="&lt;span style=&quot;text-align: left&quot;&gt;美国国家足球联盟 （ NFC ） 冠军卡罗莱纳黑豹队&amp;nbsp;&lt;/span&gt;" style="ellipse;whiteSpace=wrap;html=1;fillColor=none;align=center;" vertex="1" parent="1">
          <mxGeometry x="423" y="876" width="134" height="63" as="geometry" />
        </mxCell>
        <mxCell id="nNOYpqoYlBSuwTUVvYfQ-28" value="A0" style="text;html=1;strokeColor=none;fillColor=none;align=center;verticalAlign=middle;whiteSpace=wrap;rounded=0;" vertex="1" parent="1">
          <mxGeometry x="253" y="824" width="40" height="20" as="geometry" />
        </mxCell>
        <mxCell id="nNOYpqoYlBSuwTUVvYfQ-29" value="ARGM-MNR" style="text;whiteSpace=wrap;html=1;" vertex="1" parent="1">
          <mxGeometry x="329.9966666666667" y="857.0033333333334" width="88" height="28" as="geometry" />
        </mxCell>
        <mxCell id="nNOYpqoYlBSuwTUVvYfQ-30" value="A1" style="text;html=1;strokeColor=none;fillColor=none;align=center;verticalAlign=middle;whiteSpace=wrap;rounded=0;" vertex="1" parent="1">
          <mxGeometry x="441" y="822" width="40" height="20" as="geometry" />
        </mxCell>
        <mxCell id="nNOYpqoYlBSuwTUVvYfQ-35" style="edgeStyle=orthogonalEdgeStyle;curved=1;orthogonalLoop=1;jettySize=auto;html=1;exitX=0.5;exitY=0;exitDx=0;exitDy=0;entryX=0;entryY=0.5;entryDx=0;entryDy=0;" edge="1" parent="1" source="nNOYpqoYlBSuwTUVvYfQ-32" target="nNOYpqoYlBSuwTUVvYfQ-22">
          <mxGeometry relative="1" as="geometry" />
        </mxCell>
        <mxCell id="nNOYpqoYlBSuwTUVvYfQ-38" style="edgeStyle=orthogonalEdgeStyle;curved=1;orthogonalLoop=1;jettySize=auto;html=1;" edge="1" parent="1" source="nNOYpqoYlBSuwTUVvYfQ-32" target="nNOYpqoYlBSuwTUVvYfQ-33">
          <mxGeometry relative="1" as="geometry" />
        </mxCell>
        <mxCell id="nNOYpqoYlBSuwTUVvYfQ-32" value="获得" style="ellipse;whiteSpace=wrap;html=1;fillColor=none;align=center;" vertex="1" parent="1">
          <mxGeometry x="133" y="945" width="59" height="30" as="geometry" />
        </mxCell>
        <mxCell id="nNOYpqoYlBSuwTUVvYfQ-33" value="&lt;span style=&quot;text-align: left&quot;&gt;获得第三个超级杯冠军&lt;/span&gt;" style="ellipse;whiteSpace=wrap;html=1;fillColor=none;align=center;" vertex="1" parent="1">
          <mxGeometry x="157" y="1029" width="98.5" height="47" as="geometry" />
        </mxCell>
        <mxCell id="nNOYpqoYlBSuwTUVvYfQ-36" value="A0" style="text;html=1;strokeColor=none;fillColor=none;align=center;verticalAlign=middle;whiteSpace=wrap;rounded=0;" vertex="1" parent="1">
          <mxGeometry x="133" y="900" width="40" height="20" as="geometry" />
        </mxCell>
        <mxCell id="nNOYpqoYlBSuwTUVvYfQ-37" value="A1" style="text;html=1;strokeColor=none;fillColor=none;align=center;verticalAlign=middle;whiteSpace=wrap;rounded=0;" vertex="1" parent="1">
          <mxGeometry x="188" y="986" width="40" height="20" as="geometry" />
        </mxCell>
      </root>
    </mxGraphModel>
  </diagram>
</mxfile>
